<svg width="24" height="24" viewBox="0 0 24 24" fill="none" xmlns="http://www.w3.org/2000/svg">
<g clip-path="url(#clip0_2103_4145)">
<path d="M1 1H5V15.5C5 15.7761 5.22386 16 5.5 16H19.1802C19.6569 16 20.0673 15.6635 20.1608 15.1961L21.8804 6.59806C21.9423 6.28866 21.7056 6 21.3901 6H5" stroke="#222427" stroke-width="2" stroke-linecap="round" stroke-linejoin="round"/>
<path d="M6 22C6.55228 22 7 21.5523 7 21C7 20.4477 6.55228 20 6 20C5.44772 20 5 20.4477 5 21C5 21.5523 5.44772 22 6 22Z" stroke="#222427" stroke-width="2" stroke-linecap="round" stroke-linejoin="round"/>
<path d="M17 22C17.5523 22 18 21.5523 18 21C18 20.4477 17.5523 20 17 20C16.4477 20 16 20.4477 16 21C16 21.5523 16.4477 22 17 22Z" stroke="#222427" stroke-width="2" stroke-linecap="round" stroke-linejoin="round"/>
</g>
<defs>
<clipPath id="clip0_2103_4145">
<rect width="24" height="24" fill="white"/>
</clipPath>
</defs>
</svg>
