<svg width="24" height="24" viewBox="0 0 24 24" fill="none" xmlns="http://www.w3.org/2000/svg">
<path d="M16.5 3C19.538 3 22 5.5 22 9C22 14.8727 16.7211 18.6338 13.5446 20.5787C12.5997 21.1572 11.4003 21.1572 10.4554 20.5787C7.27886 18.6338 2 14.8727 2 9C2 5.5 4.5 3 7.5 3C9.36 3 11 4 12 5C13 4 14.64 3 16.5 3ZM12.934 18.604C13.815 18.048 14.61 17.495 15.354 16.903C18.335 14.533 20 11.943 20 9C20 6.64 18.463 5 16.5 5C15.424 5 14.26 5.57 13.414 6.414L12 7.828L10.586 6.414C9.74 5.57 8.576 5 7.5 5C5.56 5 4 6.656 4 9C4 11.944 5.666 14.533 8.645 16.903C9.39 17.495 10.185 18.048 11.066 18.603C11.2064 18.6917 11.3461 18.7787 11.4899 18.8669C11.8029 19.0589 12.197 19.0588 12.5101 18.867C12.6539 18.779 12.7936 18.6923 12.934 18.604Z" fill="#222427"/>
</svg>
