<svg width="24" height="24" viewBox="0 0 24 24" fill="none" xmlns="http://www.w3.org/2000/svg">
<path d="M12 2C9.34844 2 6.80312 3.05422 4.92969 4.92891C3.05432 6.80434 2.00052 9.34778 2 12C2 14.6511 3.05469 17.1964 4.92969 19.0711C6.80312 20.9458 9.34844 22 12 22C14.6516 22 17.1969 20.9458 19.0703 19.0711C20.9453 17.1964 22 14.6511 22 12C22 9.34891 20.9453 6.80359 19.0703 4.92891C17.1969 3.05422 14.6516 2 12 2Z" fill="#0284C7"/>
<path d="M5.82482 11.305C9.04665 9.89388 11.1945 8.96351 12.2685 8.51403C15.3384 7.23053 15.9755 7.00762 16.3916 7.00007C16.4831 6.99859 16.6868 7.02133 16.8198 7.1294C16.9303 7.22055 16.9614 7.34381 16.9769 7.43036C16.9907 7.51682 17.0097 7.71386 16.9942 7.86768C16.8284 9.62461 16.1084 13.8881 15.7424 15.856C15.5887 16.6886 15.2831 16.9678 14.9879 16.995C14.3456 17.0544 13.8587 16.5687 13.2371 16.1591C12.265 15.518 11.716 15.119 10.7715 14.4935C9.68031 13.7706 10.3882 13.3732 11.0098 12.7239C11.1721 12.5539 14.0003 9.96801 14.0538 9.73347C14.0607 9.70413 14.0676 9.59475 14.002 9.53711C13.9381 9.4793 13.8431 9.49909 13.7741 9.51472C13.6757 9.53694 12.1234 10.5696 9.11226 12.6124C8.67198 12.917 8.27313 13.0654 7.914 13.0576C7.52034 13.0491 6.76063 12.8333 6.19604 12.6489C5.5054 12.4227 4.95461 12.3031 5.00296 11.9189C5.02713 11.7189 5.30166 11.5142 5.82482 11.305V11.305Z" fill="white"/>
</svg>
