<svg width="24" height="24" viewBox="0 0 24 24" fill="none" xmlns="http://www.w3.org/2000/svg">
<path d="M2.08336 11.9099C2.08287 13.6563 2.54125 15.3616 3.41284 16.8646L2 22L7.2791 20.622C8.73923 21.4133 10.3752 21.828 12.0377 21.8281H12.042C17.5302 21.8281 21.9977 17.3822 22 11.9177C22.0011 9.26975 20.9661 6.77979 19.0859 4.90648C17.2059 3.03333 14.7056 2.00121 12.0416 2C6.55285 2 2.0857 6.44561 2.08344 11.9099" fill="#16A34A"/>
<path d="M9.54236 7.46455C9.35804 7.02283 9.16406 7.01392 8.98877 7.00617C8.84524 6.99951 8.68116 7.00001 8.51723 7.00001C8.35314 7.00001 8.08655 7.06656 7.8612 7.33186C7.63563 7.59741 7 8.23912 7 9.54429C7 10.8495 7.88168 12.1109 8.00458 12.2881C8.12765 12.4649 9.70668 15.229 12.2075 16.2924C14.2859 17.176 14.7088 17.0003 15.1599 16.956C15.611 16.9118 16.6156 16.3144 16.8206 15.695C17.0257 15.0756 17.0257 14.5446 16.9642 14.4337C16.9027 14.3232 16.7386 14.2568 16.4926 14.1242C16.2464 13.9915 15.0368 13.3497 14.8113 13.2611C14.5858 13.1727 14.4217 13.1285 14.2577 13.3942C14.0936 13.6594 13.6224 14.2568 13.4788 14.4337C13.3354 14.611 13.1917 14.6331 12.9458 14.5004C12.6996 14.3673 11.9072 14.0875 10.9671 13.1838C10.2357 12.4806 9.7419 11.6123 9.59837 11.3467C9.45483 11.0814 9.583 10.9377 9.70637 10.8055C9.81691 10.6866 9.95249 10.4957 10.0756 10.3409C10.1983 10.1859 10.2393 10.0754 10.3213 9.89846C10.4034 9.72138 10.3623 9.56645 10.3009 9.43376C10.2393 9.30106 9.76114 7.98915 9.54236 7.46463" fill="white"/>
</svg>
